<svg width="18" height="19" viewBox="0 0 18 19" fill="none" xmlns="http://www.w3.org/2000/svg">
<g clip-path="url(#clip0_7_76)">
<path d="M9.7199 6.33332C9.7199 4.58374 8.38155 3.16666 6.72916 3.16666C5.07678 3.16666 3.73842 4.58374 3.73842 6.33332C3.73842 8.08291 5.07678 9.49999 6.72916 9.49999C8.38155 9.49999 9.7199 8.08291 9.7199 6.33332ZM8.22453 6.33332C8.22453 7.20416 7.55162 7.91666 6.72916 7.91666C5.90671 7.91666 5.23379 7.20416 5.23379 6.33332C5.23379 5.46249 5.90671 4.74999 6.72916 4.74999C7.55162 4.74999 8.22453 5.46249 8.22453 6.33332ZM0.747681 14.25V15.8333H12.7106V14.25C12.7106 12.1442 8.72548 11.0833 6.72916 11.0833C4.73284 11.0833 0.747681 12.1442 0.747681 14.25ZM2.24305 14.25C2.39259 13.6879 4.71041 12.6667 6.72916 12.6667C8.74044 12.6667 11.0508 13.68 11.2153 14.25H2.24305ZM14.9537 11.875V9.49999H17.1968V7.91666H14.9537V5.54166H13.4583V7.91666H11.2153V9.49999H13.4583V11.875H14.9537Z" fill="#251D63"/>
</g>
<defs>
<clipPath id="clip0_7_76">
<rect width="17.9444" height="19" fill="white"/>
</clipPath>
</defs>
</svg>
