<svg width="33" height="32" viewBox="0 0 33 32" fill="none" xmlns="http://www.w3.org/2000/svg">
<path d="M21.4071 31.2485C21.085 31.2485 20.763 31.2025 20.441 31.1258C19.4902 30.8651 18.6928 30.267 18.1868 29.4236L18.0028 29.117C17.098 27.5528 15.8559 27.5528 14.9512 29.117L14.7825 29.4083C14.2765 30.267 13.4791 30.8804 12.5283 31.1258C11.5623 31.3865 10.5655 31.2485 9.72212 30.7424L7.08457 29.2243C6.14916 28.6876 5.47444 27.8135 5.18309 26.7554C4.90706 25.6973 5.04507 24.6086 5.58178 23.6732C6.02649 22.8911 6.14916 22.1857 5.88848 21.741C5.62779 21.2963 4.9684 21.0356 4.06366 21.0356C1.82481 21.0356 0 19.2108 0 16.972V14.2731C0 12.0342 1.82481 10.2094 4.06366 10.2094C4.9684 10.2094 5.62779 9.94874 5.88848 9.50404C6.14916 9.05934 6.04182 8.35395 5.58178 7.57188C5.04507 6.63648 4.90706 5.53239 5.18309 4.48963C5.45911 3.43155 6.13383 2.55748 7.08457 2.02077L9.73745 0.502647C11.4703 -0.52477 13.7551 0.0732783 14.7979 1.83675L14.9819 2.14345C15.8866 3.70757 17.1287 3.70757 18.0335 2.14345L18.2021 1.85209C19.2449 0.0732783 21.5297 -0.52477 23.2779 0.517981L25.9154 2.0361C26.8508 2.57281 27.5256 3.44688 27.8169 4.50497C28.0929 5.56306 27.9549 6.65181 27.4182 7.58722C26.9735 8.36928 26.8508 9.07467 27.1115 9.51937C27.3722 9.96408 28.0316 10.2248 28.9363 10.2248C31.1752 10.2248 33 12.0496 33 14.2884V16.9873C33 19.2262 31.1752 21.051 28.9363 21.051C28.0316 21.051 27.3722 21.3117 27.1115 21.7564C26.8508 22.2011 26.9582 22.9065 27.4182 23.6885C27.9549 24.6239 28.1083 25.728 27.8169 26.7708C27.5409 27.8289 26.8662 28.7029 25.9154 29.2396L23.2625 30.7578C22.6798 31.0798 22.0511 31.2485 21.4071 31.2485ZM16.4847 25.5747C17.8494 25.5747 19.1222 26.4334 19.9963 27.9515L20.165 28.2429C20.349 28.5649 20.6557 28.7949 21.0237 28.8869C21.3917 28.9789 21.7598 28.9329 22.0664 28.7489L24.7193 27.2155C25.118 26.9855 25.4247 26.6021 25.5474 26.142C25.6701 25.682 25.6087 25.2066 25.3787 24.8079C24.5046 23.3052 24.3973 21.7564 25.072 20.5756C25.7467 19.3948 27.1422 18.7201 28.8903 18.7201C29.8717 18.7201 30.6538 17.9381 30.6538 16.9566V14.2578C30.6538 13.2917 29.8717 12.4943 28.8903 12.4943C27.1422 12.4943 25.7467 11.8196 25.072 10.6388C24.3973 9.45804 24.5046 7.90924 25.3787 6.40646C25.6087 6.00776 25.6701 5.53239 25.5474 5.07235C25.4247 4.61231 25.1334 4.24428 24.7347 3.99893L22.0818 2.48081C21.4224 2.08211 20.5483 2.31213 20.1496 2.98685L19.9809 3.2782C19.1069 4.79633 17.8341 5.65506 16.4693 5.65506C15.1046 5.65506 13.8318 4.79633 12.9577 3.2782L12.789 2.97151C12.4057 2.32746 11.5469 2.09744 10.8875 2.48081L8.23466 4.01426C7.83597 4.24428 7.52927 4.62765 7.4066 5.08768C7.28392 5.54772 7.34526 6.02309 7.57528 6.42179C8.44935 7.92458 8.55669 9.47337 7.88197 10.6541C7.20725 11.8349 5.8118 12.5096 4.06366 12.5096C3.08225 12.5096 2.30019 13.2917 2.30019 14.2731V16.972C2.30019 17.9381 3.08225 18.7355 4.06366 18.7355C5.8118 18.7355 7.20725 19.4102 7.88197 20.5909C8.55669 21.7717 8.44935 23.3205 7.57528 24.8233C7.34526 25.222 7.28392 25.6973 7.4066 26.1574C7.52927 26.6174 7.82063 26.9855 8.21933 27.2308L10.8722 28.7489C11.1942 28.9483 11.5776 28.9943 11.9303 28.9023C12.2983 28.8103 12.605 28.5649 12.8044 28.2429L12.973 27.9515C13.8471 26.4487 15.1199 25.5747 16.4847 25.5747Z" fill="#251D63"/>
</svg>
